G04 #@! TF.GenerationSoftware,KiCad,Pcbnew,(5.0.0-rc3-dev)*
G04 #@! TF.CreationDate,2018-08-27T10:34:44-04:00*
G04 #@! TF.ProjectId,Neopixel mini - 96 well,4E656F706978656C206D696E69202D20,rev?*
G04 #@! TF.SameCoordinates,Original*
G04 #@! TF.FileFunction,Copper,L2,Bot,Signal*
G04 #@! TF.FilePolarity,Positive*
%FSLAX46Y46*%
G04 Gerber Fmt 4.6, Leading zero omitted, Abs format (unit mm)*
G04 Created by KiCad (PCBNEW (5.0.0-rc3-dev)) date 08/27/18 10:34:44*
%MOMM*%
%LPD*%
G01*
G04 APERTURE LIST*
G04 #@! TA.AperFunction,ComponentPad*
%ADD10C,4.064000*%
G04 #@! TD*
G04 #@! TA.AperFunction,ComponentPad*
%ADD11O,1.700000X1.700000*%
G04 #@! TD*
G04 #@! TA.AperFunction,ComponentPad*
%ADD12R,1.700000X1.700000*%
G04 #@! TD*
G04 #@! TA.AperFunction,SMDPad,CuDef*
%ADD13R,1.900000X1.200000*%
G04 #@! TD*
G04 #@! TA.AperFunction,ComponentPad*
%ADD14O,1.900000X1.200000*%
G04 #@! TD*
G04 #@! TA.AperFunction,SMDPad,CuDef*
%ADD15R,1.900000X1.500000*%
G04 #@! TD*
G04 #@! TA.AperFunction,ComponentPad*
%ADD16C,1.450000*%
G04 #@! TD*
G04 #@! TA.AperFunction,SMDPad,CuDef*
%ADD17R,1.350000X0.400000*%
G04 #@! TD*
G04 #@! TA.AperFunction,SMDPad,CuDef*
%ADD18O,1.500000X3.000000*%
G04 #@! TD*
G04 #@! TA.AperFunction,SMDPad,CuDef*
%ADD19O,3.000000X1.500000*%
G04 #@! TD*
G04 #@! TA.AperFunction,ViaPad*
%ADD20C,0.800000*%
G04 #@! TD*
G04 #@! TA.AperFunction,Conductor*
%ADD21C,0.250000*%
G04 #@! TD*
G04 #@! TA.AperFunction,Conductor*
%ADD22C,0.254000*%
G04 #@! TD*
G04 APERTURE END LIST*
D10*
G04 #@! TO.P,REF\002A\002A,1*
G04 #@! TO.N,N/C*
X44000000Y-119000000D03*
G04 #@! TD*
G04 #@! TO.P,REF\002A\002A,1*
G04 #@! TO.N,N/C*
X157600000Y-119000000D03*
G04 #@! TD*
G04 #@! TO.P,REF\002A\002A,1*
G04 #@! TO.N,N/C*
X157600000Y-44000000D03*
G04 #@! TD*
D11*
G04 #@! TO.P,J1,3*
G04 #@! TO.N,GND*
X42357040Y-81767680D03*
G04 #@! TO.P,J1,2*
G04 #@! TO.N,Net-(D1-Pad3)*
X42357040Y-79227680D03*
D12*
G04 #@! TO.P,J1,1*
G04 #@! TO.N,VCC*
X42357040Y-76687680D03*
G04 #@! TD*
D10*
G04 #@! TO.P,REF\002A\002A,1*
G04 #@! TO.N,N/C*
X44000000Y-44000000D03*
G04 #@! TD*
D13*
G04 #@! TO.P,J2,6*
G04 #@! TO.N,N/C*
X160029640Y-75453920D03*
X160029640Y-81253920D03*
D14*
X160029640Y-81853920D03*
X160029640Y-74853920D03*
D15*
X160029640Y-77353920D03*
D16*
X157329640Y-80853920D03*
D17*
G04 #@! TO.P,J2,3*
G04 #@! TO.N,Net-(J2-Pad3)*
X157329640Y-78353920D03*
G04 #@! TO.P,J2,4*
G04 #@! TO.N,GND*
X157329640Y-79003920D03*
G04 #@! TO.P,J2,5*
G04 #@! TO.N,Net-(J2-Pad5)*
X157329640Y-79653920D03*
G04 #@! TO.P,J2,1*
G04 #@! TO.N,VCC*
X157329640Y-77053920D03*
G04 #@! TO.P,J2,2*
G04 #@! TO.N,Net-(J2-Pad2)*
X157329640Y-77703920D03*
D16*
G04 #@! TO.P,J2,6*
G04 #@! TO.N,N/C*
X157329640Y-75853920D03*
D15*
X160029640Y-79353920D03*
G04 #@! TD*
D18*
G04 #@! TO.P,U1,6*
G04 #@! TO.N,Net-(U1-Pad6)*
X130719320Y-87846680D03*
G04 #@! TO.P,U1,5*
G04 #@! TO.N,Net-(U1-Pad5)*
X132719320Y-87846680D03*
G04 #@! TO.P,U1,4*
G04 #@! TO.N,Net-(D1-Pad3)*
X134719320Y-87846680D03*
G04 #@! TO.P,U1,3*
G04 #@! TO.N,Net-(U1-Pad3)*
X136719320Y-87846680D03*
G04 #@! TO.P,U1,9*
G04 #@! TO.N,Net-(U1-Pad9)*
X124719320Y-87846680D03*
G04 #@! TO.P,U1,7*
G04 #@! TO.N,Net-(U1-Pad7)*
X128719320Y-87846680D03*
G04 #@! TO.P,U1,10*
G04 #@! TO.N,Net-(U1-Pad10)*
X122719320Y-87846680D03*
G04 #@! TO.P,U1,8*
G04 #@! TO.N,Net-(U1-Pad8)*
X126719320Y-87846680D03*
G04 #@! TO.P,U1,2*
G04 #@! TO.N,Net-(U1-Pad2)*
X138719320Y-87846680D03*
G04 #@! TO.P,U1,1*
G04 #@! TO.N,Net-(U1-Pad1)*
X140719320Y-87846680D03*
D19*
G04 #@! TO.P,U1,11*
G04 #@! TO.N,Net-(U1-Pad11)*
X120719320Y-83846680D03*
G04 #@! TO.P,U1,12*
G04 #@! TO.N,Net-(U1-Pad12)*
X120719320Y-81846680D03*
G04 #@! TO.P,U1,13*
G04 #@! TO.N,Net-(U1-Pad13)*
X120719320Y-79846680D03*
G04 #@! TO.P,U1,14*
G04 #@! TO.N,Net-(U1-Pad14)*
X120719320Y-77846680D03*
G04 #@! TO.P,U1,15*
G04 #@! TO.N,Net-(U1-Pad15)*
X120719320Y-75846680D03*
G04 #@! TO.P,U1,16*
G04 #@! TO.N,Net-(U1-Pad16)*
X120719320Y-73846680D03*
D18*
G04 #@! TO.P,U1,23*
G04 #@! TO.N,Net-(U1-Pad23)*
X134719320Y-69846680D03*
G04 #@! TO.P,U1,24*
G04 #@! TO.N,Net-(U1-Pad24)*
X136719320Y-69846680D03*
G04 #@! TO.P,U1,22*
G04 #@! TO.N,Net-(U1-Pad22)*
X132719320Y-69846680D03*
G04 #@! TO.P,U1,21*
G04 #@! TO.N,Net-(U1-Pad21)*
X130719320Y-69846680D03*
G04 #@! TO.P,U1,25*
G04 #@! TO.N,Net-(U1-Pad25)*
X138719320Y-69846680D03*
G04 #@! TO.P,U1,26*
G04 #@! TO.N,Net-(U1-Pad26)*
X140719320Y-69846680D03*
G04 #@! TO.P,U1,18*
G04 #@! TO.N,Net-(U1-Pad18)*
X124719320Y-69846680D03*
G04 #@! TO.P,U1,17*
G04 #@! TO.N,Net-(U1-Pad17)*
X122719320Y-69846680D03*
G04 #@! TO.P,U1,20*
G04 #@! TO.N,Net-(U1-Pad20)*
X128719320Y-69846680D03*
G04 #@! TO.P,U1,19*
G04 #@! TO.N,Net-(U1-Pad19)*
X126719320Y-69846680D03*
D19*
G04 #@! TO.P,U1,30*
G04 #@! TO.N,Net-(J2-Pad3)*
X142719320Y-80846680D03*
G04 #@! TO.P,U1,28*
G04 #@! TO.N,VCC*
X142719320Y-76846680D03*
G04 #@! TO.P,U1,31*
G04 #@! TO.N,GND*
X142719320Y-82846680D03*
G04 #@! TO.P,U1,29*
G04 #@! TO.N,Net-(J2-Pad2)*
X142719320Y-78846680D03*
G04 #@! TO.P,U1,27*
G04 #@! TO.N,Net-(U1-Pad27)*
X142719320Y-74846680D03*
G04 #@! TD*
D20*
G04 #@! TO.N,Net-(D72-Pad1)*
X53030120Y-106451400D03*
G04 #@! TO.N,Net-(D84-Pad1)*
X52948840Y-115412520D03*
X147990560Y-101671120D03*
G04 #@! TO.N,Net-(D72-Pad1)*
X148107400Y-92532200D03*
G04 #@! TO.N,VCC*
X46390560Y-82961480D03*
G04 #@! TO.N,Net-(D36-Pad1)*
X148523960Y-65638680D03*
X52943760Y-79248000D03*
G04 #@! TO.N,Net-(D24-Pad1)*
X52898040Y-70358000D03*
X148376640Y-56662320D03*
G04 #@! TO.N,Net-(D12-Pad1)*
X52054760Y-61254640D03*
X147792440Y-47381160D03*
G04 #@! TO.N,VCC*
X46380400Y-54543960D03*
X43327320Y-54508400D03*
G04 #@! TO.N,Net-(D48-Pad1)*
X53050440Y-88188800D03*
X148417280Y-74823320D03*
G04 #@! TO.N,Net-(D60-Pad1)*
X148432520Y-83814920D03*
X52974240Y-97383600D03*
G04 #@! TO.N,VCC*
X139618720Y-74630280D03*
G04 #@! TD*
D21*
G04 #@! TO.N,Net-(D12-Pad1)*
X65928240Y-47381160D02*
X52054760Y-61254640D01*
X147792440Y-47381160D02*
X65928240Y-47381160D01*
G04 #@! TO.N,VCC*
X43362880Y-54543960D02*
X43327320Y-54508400D01*
X46380400Y-54543960D02*
X43362880Y-54543960D01*
X46380400Y-82951320D02*
X46390560Y-82961480D01*
X46380400Y-54543960D02*
X46380400Y-82951320D01*
G04 #@! TO.N,Net-(D24-Pad1)*
X66593720Y-56662320D02*
X52898040Y-70358000D01*
X148376640Y-56662320D02*
X66593720Y-56662320D01*
G04 #@! TO.N,Net-(D36-Pad1)*
X66553080Y-65638680D02*
X52943760Y-79248000D01*
X148523960Y-65638680D02*
X66553080Y-65638680D01*
G04 #@! TO.N,Net-(D48-Pad1)*
X66415920Y-74823320D02*
X53050440Y-88188800D01*
X105272840Y-74823320D02*
X66415920Y-74823320D01*
X112720120Y-67376040D02*
X105272840Y-74823320D01*
X141535685Y-67376040D02*
X112720120Y-67376040D01*
X148417280Y-74823320D02*
X148417280Y-74257635D01*
X148417280Y-74257635D02*
X141535685Y-67376040D01*
G04 #@! TO.N,Net-(D60-Pad1)*
X148432520Y-83814920D02*
X148432520Y-86918800D01*
X148432520Y-86918800D02*
X144754600Y-90596720D01*
X59761120Y-90596720D02*
X58531760Y-91826080D01*
X144754600Y-90596720D02*
X59761120Y-90596720D01*
X58531760Y-91826080D02*
X52974240Y-97383600D01*
G04 #@! TO.N,Net-(D72-Pad1)*
X66949320Y-92532200D02*
X53030120Y-106451400D01*
X148107400Y-92532200D02*
X66949320Y-92532200D01*
G04 #@! TO.N,Net-(D84-Pad1)*
X66690240Y-101671120D02*
X52948840Y-115412520D01*
X147990560Y-101671120D02*
X66690240Y-101671120D01*
G04 #@! TO.N,Net-(J2-Pad3)*
X144469320Y-80846680D02*
X142719320Y-80846680D01*
X153911880Y-80846680D02*
X144469320Y-80846680D01*
X156404640Y-78353920D02*
X153911880Y-80846680D01*
X157329640Y-78353920D02*
X156404640Y-78353920D01*
G04 #@! TO.N,GND*
X144469320Y-82846680D02*
X142719320Y-82846680D01*
X152561880Y-82846680D02*
X144469320Y-82846680D01*
X156404640Y-79003920D02*
X152561880Y-82846680D01*
X157329640Y-79003920D02*
X156404640Y-79003920D01*
G04 #@! TO.N,VCC*
X142926560Y-77053920D02*
X142719320Y-76846680D01*
X156404640Y-77053920D02*
X157329640Y-77053920D01*
X144676560Y-77053920D02*
X156404640Y-77053920D01*
X144469320Y-76846680D02*
X144676560Y-77053920D01*
X142719320Y-76846680D02*
X144469320Y-76846680D01*
X140018719Y-75030279D02*
X139618720Y-74630280D01*
X141835120Y-76846680D02*
X140018719Y-75030279D01*
X142719320Y-76846680D02*
X141835120Y-76846680D01*
G04 #@! TO.N,Net-(D1-Pad3)*
X134719320Y-86096680D02*
X133616120Y-84993480D01*
X134719320Y-87846680D02*
X134719320Y-86096680D01*
X133616120Y-84993480D02*
X122951240Y-84993480D01*
X122951240Y-84993480D02*
X122397520Y-85547200D01*
X122397520Y-85547200D02*
X59766200Y-85547200D01*
X59766200Y-85547200D02*
X53045360Y-92268040D01*
X53045360Y-92268040D02*
X51318160Y-92268040D01*
X51318160Y-92268040D02*
X44698920Y-85648800D01*
X44698920Y-81569560D02*
X42357040Y-79227680D01*
X44698920Y-85648800D02*
X44698920Y-81569560D01*
G04 #@! TO.N,Net-(J2-Pad2)*
X144469320Y-78846680D02*
X142719320Y-78846680D01*
X155261880Y-78846680D02*
X144469320Y-78846680D01*
X156404640Y-77703920D02*
X155261880Y-78846680D01*
X157329640Y-77703920D02*
X156404640Y-77703920D01*
G04 #@! TD*
D22*
G04 #@! TO.N,GND*
G36*
X158155756Y-40805391D02*
X158784730Y-41002500D01*
X159361224Y-41322055D01*
X159861682Y-41751001D01*
X160265669Y-42271818D01*
X160556682Y-42863233D01*
X160725112Y-43509848D01*
X160765001Y-44028251D01*
X160765001Y-73671378D01*
X160501276Y-73618920D01*
X159558004Y-73618920D01*
X159197767Y-73690576D01*
X158789255Y-73963535D01*
X158516296Y-74372047D01*
X158420445Y-74853920D01*
X158432200Y-74913016D01*
X158432200Y-75033150D01*
X158100018Y-74700968D01*
X157600161Y-74493920D01*
X157059119Y-74493920D01*
X156559262Y-74700968D01*
X156176688Y-75083542D01*
X155969640Y-75583399D01*
X155969640Y-76124441D01*
X156039841Y-76293920D01*
X145010019Y-76293920D01*
X144765857Y-76130776D01*
X144639960Y-76105733D01*
X144467849Y-75848151D01*
X144465647Y-75846680D01*
X144467849Y-75845209D01*
X144773961Y-75387080D01*
X144881453Y-74846680D01*
X144773961Y-74306280D01*
X144467849Y-73848151D01*
X144009720Y-73542039D01*
X143605727Y-73461680D01*
X141832913Y-73461680D01*
X141428920Y-73542039D01*
X140970791Y-73848151D01*
X140664679Y-74306280D01*
X140645250Y-74403957D01*
X140496151Y-74044000D01*
X140205000Y-73752849D01*
X139824594Y-73595280D01*
X139412846Y-73595280D01*
X139032440Y-73752849D01*
X138741289Y-74044000D01*
X138583720Y-74424406D01*
X138583720Y-74836154D01*
X138741289Y-75216560D01*
X139032440Y-75507711D01*
X139412846Y-75665280D01*
X139578919Y-75665280D01*
X140590889Y-76677250D01*
X140557187Y-76846680D01*
X140664679Y-77387080D01*
X140970791Y-77845209D01*
X140972993Y-77846680D01*
X140970791Y-77848151D01*
X140664679Y-78306280D01*
X140557187Y-78846680D01*
X140664679Y-79387080D01*
X140970791Y-79845209D01*
X140972993Y-79846680D01*
X140970791Y-79848151D01*
X140664679Y-80306280D01*
X140557187Y-80846680D01*
X140664679Y-81387080D01*
X140970791Y-81845209D01*
X141007856Y-81869975D01*
X140900175Y-81957140D01*
X140641147Y-82433996D01*
X140627002Y-82505495D01*
X140749664Y-82719680D01*
X142592320Y-82719680D01*
X142592320Y-82699680D01*
X142846320Y-82699680D01*
X142846320Y-82719680D01*
X144688976Y-82719680D01*
X144811638Y-82505495D01*
X144797493Y-82433996D01*
X144538465Y-81957140D01*
X144430784Y-81869975D01*
X144467849Y-81845209D01*
X144627229Y-81606680D01*
X153837033Y-81606680D01*
X153911880Y-81621568D01*
X153986727Y-81606680D01*
X153986732Y-81606680D01*
X154208417Y-81562584D01*
X154459809Y-81394609D01*
X154502211Y-81331150D01*
X156007200Y-79826162D01*
X156007200Y-79853920D01*
X156056483Y-80101685D01*
X156126048Y-80205796D01*
X155969640Y-80583399D01*
X155969640Y-81124441D01*
X156176688Y-81624298D01*
X156559262Y-82006872D01*
X157059119Y-82213920D01*
X157600161Y-82213920D01*
X158100018Y-82006872D01*
X158432200Y-81674690D01*
X158432200Y-81794824D01*
X158420445Y-81853920D01*
X158516296Y-82335793D01*
X158789255Y-82744305D01*
X159197767Y-83017264D01*
X159558004Y-83088920D01*
X160501276Y-83088920D01*
X160765000Y-83036462D01*
X160765000Y-118962769D01*
X160694609Y-119655759D01*
X160497499Y-120284734D01*
X160177945Y-120861224D01*
X159749002Y-121361680D01*
X159228182Y-121765669D01*
X158636767Y-122056682D01*
X157990153Y-122225112D01*
X157471762Y-122265000D01*
X45032731Y-122265000D01*
X44245252Y-122194719D01*
X43514357Y-121994769D01*
X42830425Y-121668550D01*
X42215072Y-121226374D01*
X41687741Y-120682211D01*
X41265114Y-120053274D01*
X40960536Y-119359429D01*
X40782286Y-118616961D01*
X40771458Y-118469501D01*
X41333000Y-118469501D01*
X41333000Y-119530499D01*
X41739026Y-120510734D01*
X42489266Y-121260974D01*
X43469501Y-121667000D01*
X44530499Y-121667000D01*
X45510734Y-121260974D01*
X46260974Y-120510734D01*
X46667000Y-119530499D01*
X46667000Y-118469501D01*
X154933000Y-118469501D01*
X154933000Y-119530499D01*
X155339026Y-120510734D01*
X156089266Y-121260974D01*
X157069501Y-121667000D01*
X158130499Y-121667000D01*
X159110734Y-121260974D01*
X159860974Y-120510734D01*
X160267000Y-119530499D01*
X160267000Y-118469501D01*
X159860974Y-117489266D01*
X159110734Y-116739026D01*
X158130499Y-116333000D01*
X157069501Y-116333000D01*
X156089266Y-116739026D01*
X155339026Y-117489266D01*
X154933000Y-118469501D01*
X46667000Y-118469501D01*
X46260974Y-117489266D01*
X45510734Y-116739026D01*
X44530499Y-116333000D01*
X43469501Y-116333000D01*
X42489266Y-116739026D01*
X41739026Y-117489266D01*
X41333000Y-118469501D01*
X40771458Y-118469501D01*
X40735000Y-117973051D01*
X40735000Y-115206646D01*
X51913840Y-115206646D01*
X51913840Y-115618394D01*
X52071409Y-115998800D01*
X52362560Y-116289951D01*
X52742966Y-116447520D01*
X53154714Y-116447520D01*
X53535120Y-116289951D01*
X53826271Y-115998800D01*
X53983840Y-115618394D01*
X53983840Y-115452321D01*
X67005042Y-102431120D01*
X147286849Y-102431120D01*
X147404280Y-102548551D01*
X147784686Y-102706120D01*
X148196434Y-102706120D01*
X148576840Y-102548551D01*
X148867991Y-102257400D01*
X149025560Y-101876994D01*
X149025560Y-101465246D01*
X148867991Y-101084840D01*
X148576840Y-100793689D01*
X148196434Y-100636120D01*
X147784686Y-100636120D01*
X147404280Y-100793689D01*
X147286849Y-100911120D01*
X66765086Y-100911120D01*
X66690239Y-100896232D01*
X66615392Y-100911120D01*
X66615388Y-100911120D01*
X66393703Y-100955216D01*
X66142311Y-101123191D01*
X66099911Y-101186647D01*
X52909039Y-114377520D01*
X52742966Y-114377520D01*
X52362560Y-114535089D01*
X52071409Y-114826240D01*
X51913840Y-115206646D01*
X40735000Y-115206646D01*
X40735000Y-106245526D01*
X51995120Y-106245526D01*
X51995120Y-106657274D01*
X52152689Y-107037680D01*
X52443840Y-107328831D01*
X52824246Y-107486400D01*
X53235994Y-107486400D01*
X53616400Y-107328831D01*
X53907551Y-107037680D01*
X54065120Y-106657274D01*
X54065120Y-106491201D01*
X67264123Y-93292200D01*
X147403689Y-93292200D01*
X147521120Y-93409631D01*
X147901526Y-93567200D01*
X148313274Y-93567200D01*
X148693680Y-93409631D01*
X148984831Y-93118480D01*
X149142400Y-92738074D01*
X149142400Y-92326326D01*
X148984831Y-91945920D01*
X148693680Y-91654769D01*
X148313274Y-91497200D01*
X147901526Y-91497200D01*
X147521120Y-91654769D01*
X147403689Y-91772200D01*
X67024166Y-91772200D01*
X66949319Y-91757312D01*
X66874472Y-91772200D01*
X66874468Y-91772200D01*
X66652783Y-91816296D01*
X66638139Y-91826081D01*
X66464846Y-91941871D01*
X66464844Y-91941873D01*
X66401391Y-91984271D01*
X66358993Y-92047724D01*
X52990319Y-105416400D01*
X52824246Y-105416400D01*
X52443840Y-105573969D01*
X52152689Y-105865120D01*
X51995120Y-106245526D01*
X40735000Y-106245526D01*
X40735000Y-82124570D01*
X40915564Y-82124570D01*
X41085395Y-82534604D01*
X41475682Y-82962863D01*
X42000148Y-83209166D01*
X42230040Y-83088499D01*
X42230040Y-81894680D01*
X41036885Y-81894680D01*
X40915564Y-82124570D01*
X40735000Y-82124570D01*
X40735000Y-79227680D01*
X40842948Y-79227680D01*
X40958201Y-79807098D01*
X41286415Y-80298305D01*
X41605518Y-80511523D01*
X41475682Y-80572497D01*
X41085395Y-81000756D01*
X40915564Y-81410790D01*
X41036885Y-81640680D01*
X42230040Y-81640680D01*
X42230040Y-81620680D01*
X42484040Y-81620680D01*
X42484040Y-81640680D01*
X42504040Y-81640680D01*
X42504040Y-81894680D01*
X42484040Y-81894680D01*
X42484040Y-83088499D01*
X42713932Y-83209166D01*
X43238398Y-82962863D01*
X43628685Y-82534604D01*
X43798516Y-82124570D01*
X43677196Y-81894682D01*
X43842040Y-81894682D01*
X43842040Y-81787483D01*
X43938921Y-81884364D01*
X43938920Y-85573953D01*
X43924032Y-85648800D01*
X43938920Y-85723647D01*
X43938920Y-85723651D01*
X43983016Y-85945336D01*
X44150991Y-86196729D01*
X44214450Y-86239131D01*
X50727831Y-92752513D01*
X50770231Y-92815969D01*
X51021623Y-92983944D01*
X51243308Y-93028040D01*
X51243313Y-93028040D01*
X51318160Y-93042928D01*
X51393007Y-93028040D01*
X52970513Y-93028040D01*
X53045360Y-93042928D01*
X53120207Y-93028040D01*
X53120212Y-93028040D01*
X53341897Y-92983944D01*
X53593289Y-92815969D01*
X53635691Y-92752510D01*
X60081002Y-86307200D01*
X121581110Y-86307200D01*
X121414679Y-86556281D01*
X121334320Y-86960274D01*
X121334320Y-88733087D01*
X121414680Y-89137080D01*
X121720792Y-89595209D01*
X122082239Y-89836720D01*
X59835968Y-89836720D01*
X59761120Y-89821832D01*
X59686272Y-89836720D01*
X59686268Y-89836720D01*
X59464583Y-89880816D01*
X59213191Y-90048791D01*
X59170791Y-90112247D01*
X58047290Y-91235749D01*
X58047287Y-91235751D01*
X52934439Y-96348600D01*
X52768366Y-96348600D01*
X52387960Y-96506169D01*
X52096809Y-96797320D01*
X51939240Y-97177726D01*
X51939240Y-97589474D01*
X52096809Y-97969880D01*
X52387960Y-98261031D01*
X52768366Y-98418600D01*
X53180114Y-98418600D01*
X53560520Y-98261031D01*
X53851671Y-97969880D01*
X54009240Y-97589474D01*
X54009240Y-97423401D01*
X59122089Y-92310553D01*
X59122091Y-92310550D01*
X60075922Y-91356720D01*
X144679753Y-91356720D01*
X144754600Y-91371608D01*
X144829447Y-91356720D01*
X144829452Y-91356720D01*
X145051137Y-91312624D01*
X145302529Y-91144649D01*
X145344931Y-91081190D01*
X148916996Y-87509127D01*
X148980449Y-87466729D01*
X149022847Y-87403276D01*
X149022849Y-87403274D01*
X149148423Y-87215338D01*
X149148424Y-87215337D01*
X149192520Y-86993652D01*
X149192520Y-86993648D01*
X149207408Y-86918801D01*
X149192520Y-86843954D01*
X149192520Y-84518631D01*
X149309951Y-84401200D01*
X149467520Y-84020794D01*
X149467520Y-83609046D01*
X149309951Y-83228640D01*
X149018800Y-82937489D01*
X148638394Y-82779920D01*
X148226646Y-82779920D01*
X147846240Y-82937489D01*
X147555089Y-83228640D01*
X147397520Y-83609046D01*
X147397520Y-84020794D01*
X147555089Y-84401200D01*
X147672520Y-84518631D01*
X147672521Y-86603996D01*
X144439799Y-89836720D01*
X141356402Y-89836720D01*
X141717849Y-89595209D01*
X142023961Y-89137080D01*
X142104320Y-88733087D01*
X142104320Y-86960273D01*
X142023961Y-86556280D01*
X141717848Y-86098151D01*
X141259719Y-85792039D01*
X140719320Y-85684547D01*
X140178920Y-85792039D01*
X139720791Y-86098152D01*
X139719320Y-86100354D01*
X139717848Y-86098151D01*
X139259719Y-85792039D01*
X138719320Y-85684547D01*
X138178920Y-85792039D01*
X137720791Y-86098152D01*
X137719320Y-86100354D01*
X137717848Y-86098151D01*
X137259719Y-85792039D01*
X136719320Y-85684547D01*
X136178920Y-85792039D01*
X135720791Y-86098152D01*
X135719320Y-86100354D01*
X135717848Y-86098151D01*
X135460267Y-85926041D01*
X135435224Y-85800143D01*
X135334100Y-85648800D01*
X135309649Y-85612206D01*
X135309647Y-85612204D01*
X135267249Y-85548751D01*
X135203795Y-85506353D01*
X134206451Y-84509009D01*
X134164049Y-84445551D01*
X133912657Y-84277576D01*
X133690972Y-84233480D01*
X133690967Y-84233480D01*
X133616120Y-84218592D01*
X133541273Y-84233480D01*
X123026086Y-84233480D01*
X122951239Y-84218592D01*
X122876392Y-84233480D01*
X122876388Y-84233480D01*
X122801553Y-84248366D01*
X122881453Y-83846680D01*
X122773961Y-83306280D01*
X122694839Y-83187865D01*
X140627002Y-83187865D01*
X140641147Y-83259364D01*
X140900175Y-83736220D01*
X141321971Y-84077652D01*
X141842320Y-84231680D01*
X142592320Y-84231680D01*
X142592320Y-82973680D01*
X142846320Y-82973680D01*
X142846320Y-84231680D01*
X143596320Y-84231680D01*
X144116669Y-84077652D01*
X144538465Y-83736220D01*
X144797493Y-83259364D01*
X144811638Y-83187865D01*
X144688976Y-82973680D01*
X142846320Y-82973680D01*
X142592320Y-82973680D01*
X140749664Y-82973680D01*
X140627002Y-83187865D01*
X122694839Y-83187865D01*
X122467849Y-82848151D01*
X122465647Y-82846680D01*
X122467849Y-82845209D01*
X122773961Y-82387080D01*
X122881453Y-81846680D01*
X122773961Y-81306280D01*
X122467849Y-80848151D01*
X122465647Y-80846680D01*
X122467849Y-80845209D01*
X122773961Y-80387080D01*
X122881453Y-79846680D01*
X122773961Y-79306280D01*
X122467849Y-78848151D01*
X122465647Y-78846680D01*
X122467849Y-78845209D01*
X122773961Y-78387080D01*
X122881453Y-77846680D01*
X122773961Y-77306280D01*
X122467849Y-76848151D01*
X122465647Y-76846680D01*
X122467849Y-76845209D01*
X122773961Y-76387080D01*
X122881453Y-75846680D01*
X122773961Y-75306280D01*
X122467849Y-74848151D01*
X122465647Y-74846680D01*
X122467849Y-74845209D01*
X122773961Y-74387080D01*
X122881453Y-73846680D01*
X122773961Y-73306280D01*
X122467849Y-72848151D01*
X122009720Y-72542039D01*
X121605727Y-72461680D01*
X119832913Y-72461680D01*
X119428920Y-72542039D01*
X118970791Y-72848151D01*
X118664679Y-73306280D01*
X118557187Y-73846680D01*
X118664679Y-74387080D01*
X118970791Y-74845209D01*
X118972993Y-74846680D01*
X118970791Y-74848151D01*
X118664679Y-75306280D01*
X118557187Y-75846680D01*
X118664679Y-76387080D01*
X118970791Y-76845209D01*
X118972993Y-76846680D01*
X118970791Y-76848151D01*
X118664679Y-77306280D01*
X118557187Y-77846680D01*
X118664679Y-78387080D01*
X118970791Y-78845209D01*
X118972993Y-78846680D01*
X118970791Y-78848151D01*
X118664679Y-79306280D01*
X118557187Y-79846680D01*
X118664679Y-80387080D01*
X118970791Y-80845209D01*
X118972993Y-80846680D01*
X118970791Y-80848151D01*
X118664679Y-81306280D01*
X118557187Y-81846680D01*
X118664679Y-82387080D01*
X118970791Y-82845209D01*
X118972993Y-82846680D01*
X118970791Y-82848151D01*
X118664679Y-83306280D01*
X118557187Y-83846680D01*
X118664679Y-84387080D01*
X118932031Y-84787200D01*
X59841046Y-84787200D01*
X59766199Y-84772312D01*
X59691352Y-84787200D01*
X59691348Y-84787200D01*
X59469663Y-84831296D01*
X59218271Y-84999271D01*
X59175871Y-85062727D01*
X52730559Y-91508040D01*
X51632962Y-91508040D01*
X48107848Y-87982926D01*
X52015440Y-87982926D01*
X52015440Y-88394674D01*
X52173009Y-88775080D01*
X52464160Y-89066231D01*
X52844566Y-89223800D01*
X53256314Y-89223800D01*
X53636720Y-89066231D01*
X53927871Y-88775080D01*
X54085440Y-88394674D01*
X54085440Y-88228601D01*
X66730722Y-75583320D01*
X105197993Y-75583320D01*
X105272840Y-75598208D01*
X105347687Y-75583320D01*
X105347692Y-75583320D01*
X105569377Y-75539224D01*
X105820769Y-75371249D01*
X105863171Y-75307790D01*
X113034923Y-68136040D01*
X121695475Y-68136040D01*
X121414679Y-68556281D01*
X121334320Y-68960274D01*
X121334320Y-70733087D01*
X121414680Y-71137080D01*
X121720792Y-71595209D01*
X122178921Y-71901321D01*
X122719320Y-72008813D01*
X123259720Y-71901321D01*
X123717849Y-71595209D01*
X123719321Y-71593007D01*
X123720792Y-71595209D01*
X124178921Y-71901321D01*
X124719320Y-72008813D01*
X125259720Y-71901321D01*
X125717849Y-71595209D01*
X125719321Y-71593007D01*
X125720792Y-71595209D01*
X126178921Y-71901321D01*
X126719320Y-72008813D01*
X127259720Y-71901321D01*
X127717849Y-71595209D01*
X127719321Y-71593007D01*
X127720792Y-71595209D01*
X128178921Y-71901321D01*
X128719320Y-72008813D01*
X129259720Y-71901321D01*
X129717849Y-71595209D01*
X129719321Y-71593007D01*
X129720792Y-71595209D01*
X130178921Y-71901321D01*
X130719320Y-72008813D01*
X131259720Y-71901321D01*
X131717849Y-71595209D01*
X131719321Y-71593007D01*
X131720792Y-71595209D01*
X132178921Y-71901321D01*
X132719320Y-72008813D01*
X133259720Y-71901321D01*
X133717849Y-71595209D01*
X133719321Y-71593007D01*
X133720792Y-71595209D01*
X134178921Y-71901321D01*
X134719320Y-72008813D01*
X135259720Y-71901321D01*
X135717849Y-71595209D01*
X135719321Y-71593007D01*
X135720792Y-71595209D01*
X136178921Y-71901321D01*
X136719320Y-72008813D01*
X137259720Y-71901321D01*
X137717849Y-71595209D01*
X137719321Y-71593007D01*
X137720792Y-71595209D01*
X138178921Y-71901321D01*
X138719320Y-72008813D01*
X139259720Y-71901321D01*
X139717849Y-71595209D01*
X139719321Y-71593007D01*
X139720792Y-71595209D01*
X140178921Y-71901321D01*
X140719320Y-72008813D01*
X141259720Y-71901321D01*
X141717849Y-71595209D01*
X142023961Y-71137080D01*
X142104320Y-70733087D01*
X142104320Y-69019476D01*
X147476008Y-74391165D01*
X147382280Y-74617446D01*
X147382280Y-75029194D01*
X147539849Y-75409600D01*
X147831000Y-75700751D01*
X148211406Y-75858320D01*
X148623154Y-75858320D01*
X149003560Y-75700751D01*
X149294711Y-75409600D01*
X149452280Y-75029194D01*
X149452280Y-74617446D01*
X149294711Y-74237040D01*
X149161594Y-74103923D01*
X149133184Y-73961098D01*
X148965209Y-73709706D01*
X148901753Y-73667306D01*
X142126016Y-66891570D01*
X142083614Y-66828111D01*
X141832222Y-66660136D01*
X141610537Y-66616040D01*
X141610532Y-66616040D01*
X141535685Y-66601152D01*
X141460838Y-66616040D01*
X112794966Y-66616040D01*
X112720119Y-66601152D01*
X112645272Y-66616040D01*
X112645268Y-66616040D01*
X112423583Y-66660136D01*
X112423581Y-66660137D01*
X112423582Y-66660137D01*
X112235646Y-66785711D01*
X112235644Y-66785713D01*
X112172191Y-66828111D01*
X112129793Y-66891564D01*
X104958039Y-74063320D01*
X66490766Y-74063320D01*
X66415919Y-74048432D01*
X66341072Y-74063320D01*
X66341068Y-74063320D01*
X66119383Y-74107416D01*
X65867991Y-74275391D01*
X65825591Y-74338847D01*
X53010639Y-87153800D01*
X52844566Y-87153800D01*
X52464160Y-87311369D01*
X52173009Y-87602520D01*
X52015440Y-87982926D01*
X48107848Y-87982926D01*
X45458920Y-85333999D01*
X45458920Y-83416888D01*
X45513129Y-83547760D01*
X45804280Y-83838911D01*
X46184686Y-83996480D01*
X46596434Y-83996480D01*
X46976840Y-83838911D01*
X47267991Y-83547760D01*
X47425560Y-83167354D01*
X47425560Y-82755606D01*
X47267991Y-82375200D01*
X47140400Y-82247609D01*
X47140400Y-79042126D01*
X51908760Y-79042126D01*
X51908760Y-79453874D01*
X52066329Y-79834280D01*
X52357480Y-80125431D01*
X52737886Y-80283000D01*
X53149634Y-80283000D01*
X53530040Y-80125431D01*
X53821191Y-79834280D01*
X53978760Y-79453874D01*
X53978760Y-79287801D01*
X66867882Y-66398680D01*
X147820249Y-66398680D01*
X147937680Y-66516111D01*
X148318086Y-66673680D01*
X148729834Y-66673680D01*
X149110240Y-66516111D01*
X149401391Y-66224960D01*
X149558960Y-65844554D01*
X149558960Y-65432806D01*
X149401391Y-65052400D01*
X149110240Y-64761249D01*
X148729834Y-64603680D01*
X148318086Y-64603680D01*
X147937680Y-64761249D01*
X147820249Y-64878680D01*
X66627927Y-64878680D01*
X66553080Y-64863792D01*
X66478233Y-64878680D01*
X66478228Y-64878680D01*
X66256543Y-64922776D01*
X66005151Y-65090751D01*
X65962751Y-65154207D01*
X52903959Y-78213000D01*
X52737886Y-78213000D01*
X52357480Y-78370569D01*
X52066329Y-78661720D01*
X51908760Y-79042126D01*
X47140400Y-79042126D01*
X47140400Y-70152126D01*
X51863040Y-70152126D01*
X51863040Y-70563874D01*
X52020609Y-70944280D01*
X52311760Y-71235431D01*
X52692166Y-71393000D01*
X53103914Y-71393000D01*
X53484320Y-71235431D01*
X53775471Y-70944280D01*
X53933040Y-70563874D01*
X53933040Y-70397801D01*
X66908523Y-57422320D01*
X147672929Y-57422320D01*
X147790360Y-57539751D01*
X148170766Y-57697320D01*
X148582514Y-57697320D01*
X148962920Y-57539751D01*
X149254071Y-57248600D01*
X149411640Y-56868194D01*
X149411640Y-56456446D01*
X149254071Y-56076040D01*
X148962920Y-55784889D01*
X148582514Y-55627320D01*
X148170766Y-55627320D01*
X147790360Y-55784889D01*
X147672929Y-55902320D01*
X66668566Y-55902320D01*
X66593719Y-55887432D01*
X66518872Y-55902320D01*
X66518868Y-55902320D01*
X66297183Y-55946416D01*
X66297181Y-55946417D01*
X66297182Y-55946417D01*
X66109246Y-56071991D01*
X66109244Y-56071993D01*
X66045791Y-56114391D01*
X66003393Y-56177844D01*
X52858239Y-69323000D01*
X52692166Y-69323000D01*
X52311760Y-69480569D01*
X52020609Y-69771720D01*
X51863040Y-70152126D01*
X47140400Y-70152126D01*
X47140400Y-61048766D01*
X51019760Y-61048766D01*
X51019760Y-61460514D01*
X51177329Y-61840920D01*
X51468480Y-62132071D01*
X51848886Y-62289640D01*
X52260634Y-62289640D01*
X52641040Y-62132071D01*
X52932191Y-61840920D01*
X53089760Y-61460514D01*
X53089760Y-61294441D01*
X66243042Y-48141160D01*
X147088729Y-48141160D01*
X147206160Y-48258591D01*
X147586566Y-48416160D01*
X147998314Y-48416160D01*
X148378720Y-48258591D01*
X148669871Y-47967440D01*
X148827440Y-47587034D01*
X148827440Y-47175286D01*
X148669871Y-46794880D01*
X148378720Y-46503729D01*
X147998314Y-46346160D01*
X147586566Y-46346160D01*
X147206160Y-46503729D01*
X147088729Y-46621160D01*
X66003088Y-46621160D01*
X65928240Y-46606272D01*
X65853392Y-46621160D01*
X65853388Y-46621160D01*
X65631703Y-46665256D01*
X65380311Y-46833231D01*
X65337911Y-46896687D01*
X52014959Y-60219640D01*
X51848886Y-60219640D01*
X51468480Y-60377209D01*
X51177329Y-60668360D01*
X51019760Y-61048766D01*
X47140400Y-61048766D01*
X47140400Y-55247671D01*
X47257831Y-55130240D01*
X47415400Y-54749834D01*
X47415400Y-54338086D01*
X47257831Y-53957680D01*
X46966680Y-53666529D01*
X46586274Y-53508960D01*
X46174526Y-53508960D01*
X45794120Y-53666529D01*
X45676689Y-53783960D01*
X44066591Y-53783960D01*
X43913600Y-53630969D01*
X43533194Y-53473400D01*
X43121446Y-53473400D01*
X42741040Y-53630969D01*
X42449889Y-53922120D01*
X42292320Y-54302526D01*
X42292320Y-54714274D01*
X42449889Y-55094680D01*
X42741040Y-55385831D01*
X43121446Y-55543400D01*
X43533194Y-55543400D01*
X43913600Y-55385831D01*
X43995471Y-55303960D01*
X45620400Y-55303960D01*
X45620401Y-82267928D01*
X45513129Y-82375200D01*
X45458920Y-82506072D01*
X45458920Y-81644406D01*
X45473808Y-81569559D01*
X45458920Y-81494712D01*
X45458920Y-81494708D01*
X45414824Y-81273023D01*
X45373022Y-81210462D01*
X45289249Y-81085086D01*
X45289247Y-81085084D01*
X45246849Y-81021631D01*
X45183396Y-80979233D01*
X43798249Y-79594087D01*
X43871132Y-79227680D01*
X43755879Y-78648262D01*
X43427665Y-78157055D01*
X43409421Y-78144864D01*
X43454805Y-78135837D01*
X43664849Y-77995489D01*
X43805197Y-77785445D01*
X43854480Y-77537680D01*
X43854480Y-75837680D01*
X43805197Y-75589915D01*
X43664849Y-75379871D01*
X43454805Y-75239523D01*
X43207040Y-75190240D01*
X41507040Y-75190240D01*
X41259275Y-75239523D01*
X41049231Y-75379871D01*
X40908883Y-75589915D01*
X40859600Y-75837680D01*
X40859600Y-77537680D01*
X40908883Y-77785445D01*
X41049231Y-77995489D01*
X41259275Y-78135837D01*
X41304659Y-78144864D01*
X41286415Y-78157055D01*
X40958201Y-78648262D01*
X40842948Y-79227680D01*
X40735000Y-79227680D01*
X40735000Y-45032731D01*
X40805281Y-44245253D01*
X41005231Y-43514357D01*
X41026626Y-43469501D01*
X41333000Y-43469501D01*
X41333000Y-44530499D01*
X41739026Y-45510734D01*
X42489266Y-46260974D01*
X43469501Y-46667000D01*
X44530499Y-46667000D01*
X45510734Y-46260974D01*
X46260974Y-45510734D01*
X46667000Y-44530499D01*
X46667000Y-43469501D01*
X154933000Y-43469501D01*
X154933000Y-44530499D01*
X155339026Y-45510734D01*
X156089266Y-46260974D01*
X157069501Y-46667000D01*
X158130499Y-46667000D01*
X159110734Y-46260974D01*
X159860974Y-45510734D01*
X160267000Y-44530499D01*
X160267000Y-43469501D01*
X159860974Y-42489266D01*
X159110734Y-41739026D01*
X158130499Y-41333000D01*
X157069501Y-41333000D01*
X156089266Y-41739026D01*
X155339026Y-42489266D01*
X154933000Y-43469501D01*
X46667000Y-43469501D01*
X46260974Y-42489266D01*
X45510734Y-41739026D01*
X44530499Y-41333000D01*
X43469501Y-41333000D01*
X42489266Y-41739026D01*
X41739026Y-42489266D01*
X41333000Y-43469501D01*
X41026626Y-43469501D01*
X41331450Y-42830425D01*
X41773626Y-42215072D01*
X42317789Y-41687741D01*
X42946726Y-41265114D01*
X43640570Y-40960537D01*
X44383039Y-40782285D01*
X45026949Y-40735000D01*
X157462770Y-40735000D01*
X158155756Y-40805391D01*
X158155756Y-40805391D01*
G37*
X158155756Y-40805391D02*
X158784730Y-41002500D01*
X159361224Y-41322055D01*
X159861682Y-41751001D01*
X160265669Y-42271818D01*
X160556682Y-42863233D01*
X160725112Y-43509848D01*
X160765001Y-44028251D01*
X160765001Y-73671378D01*
X160501276Y-73618920D01*
X159558004Y-73618920D01*
X159197767Y-73690576D01*
X158789255Y-73963535D01*
X158516296Y-74372047D01*
X158420445Y-74853920D01*
X158432200Y-74913016D01*
X158432200Y-75033150D01*
X158100018Y-74700968D01*
X157600161Y-74493920D01*
X157059119Y-74493920D01*
X156559262Y-74700968D01*
X156176688Y-75083542D01*
X155969640Y-75583399D01*
X155969640Y-76124441D01*
X156039841Y-76293920D01*
X145010019Y-76293920D01*
X144765857Y-76130776D01*
X144639960Y-76105733D01*
X144467849Y-75848151D01*
X144465647Y-75846680D01*
X144467849Y-75845209D01*
X144773961Y-75387080D01*
X144881453Y-74846680D01*
X144773961Y-74306280D01*
X144467849Y-73848151D01*
X144009720Y-73542039D01*
X143605727Y-73461680D01*
X141832913Y-73461680D01*
X141428920Y-73542039D01*
X140970791Y-73848151D01*
X140664679Y-74306280D01*
X140645250Y-74403957D01*
X140496151Y-74044000D01*
X140205000Y-73752849D01*
X139824594Y-73595280D01*
X139412846Y-73595280D01*
X139032440Y-73752849D01*
X138741289Y-74044000D01*
X138583720Y-74424406D01*
X138583720Y-74836154D01*
X138741289Y-75216560D01*
X139032440Y-75507711D01*
X139412846Y-75665280D01*
X139578919Y-75665280D01*
X140590889Y-76677250D01*
X140557187Y-76846680D01*
X140664679Y-77387080D01*
X140970791Y-77845209D01*
X140972993Y-77846680D01*
X140970791Y-77848151D01*
X140664679Y-78306280D01*
X140557187Y-78846680D01*
X140664679Y-79387080D01*
X140970791Y-79845209D01*
X140972993Y-79846680D01*
X140970791Y-79848151D01*
X140664679Y-80306280D01*
X140557187Y-80846680D01*
X140664679Y-81387080D01*
X140970791Y-81845209D01*
X141007856Y-81869975D01*
X140900175Y-81957140D01*
X140641147Y-82433996D01*
X140627002Y-82505495D01*
X140749664Y-82719680D01*
X142592320Y-82719680D01*
X142592320Y-82699680D01*
X142846320Y-82699680D01*
X142846320Y-82719680D01*
X144688976Y-82719680D01*
X144811638Y-82505495D01*
X144797493Y-82433996D01*
X144538465Y-81957140D01*
X144430784Y-81869975D01*
X144467849Y-81845209D01*
X144627229Y-81606680D01*
X153837033Y-81606680D01*
X153911880Y-81621568D01*
X153986727Y-81606680D01*
X153986732Y-81606680D01*
X154208417Y-81562584D01*
X154459809Y-81394609D01*
X154502211Y-81331150D01*
X156007200Y-79826162D01*
X156007200Y-79853920D01*
X156056483Y-80101685D01*
X156126048Y-80205796D01*
X155969640Y-80583399D01*
X155969640Y-81124441D01*
X156176688Y-81624298D01*
X156559262Y-82006872D01*
X157059119Y-82213920D01*
X157600161Y-82213920D01*
X158100018Y-82006872D01*
X158432200Y-81674690D01*
X158432200Y-81794824D01*
X158420445Y-81853920D01*
X158516296Y-82335793D01*
X158789255Y-82744305D01*
X159197767Y-83017264D01*
X159558004Y-83088920D01*
X160501276Y-83088920D01*
X160765000Y-83036462D01*
X160765000Y-118962769D01*
X160694609Y-119655759D01*
X160497499Y-120284734D01*
X160177945Y-120861224D01*
X159749002Y-121361680D01*
X159228182Y-121765669D01*
X158636767Y-122056682D01*
X157990153Y-122225112D01*
X157471762Y-122265000D01*
X45032731Y-122265000D01*
X44245252Y-122194719D01*
X43514357Y-121994769D01*
X42830425Y-121668550D01*
X42215072Y-121226374D01*
X41687741Y-120682211D01*
X41265114Y-120053274D01*
X40960536Y-119359429D01*
X40782286Y-118616961D01*
X40771458Y-118469501D01*
X41333000Y-118469501D01*
X41333000Y-119530499D01*
X41739026Y-120510734D01*
X42489266Y-121260974D01*
X43469501Y-121667000D01*
X44530499Y-121667000D01*
X45510734Y-121260974D01*
X46260974Y-120510734D01*
X46667000Y-119530499D01*
X46667000Y-118469501D01*
X154933000Y-118469501D01*
X154933000Y-119530499D01*
X155339026Y-120510734D01*
X156089266Y-121260974D01*
X157069501Y-121667000D01*
X158130499Y-121667000D01*
X159110734Y-121260974D01*
X159860974Y-120510734D01*
X160267000Y-119530499D01*
X160267000Y-118469501D01*
X159860974Y-117489266D01*
X159110734Y-116739026D01*
X158130499Y-116333000D01*
X157069501Y-116333000D01*
X156089266Y-116739026D01*
X155339026Y-117489266D01*
X154933000Y-118469501D01*
X46667000Y-118469501D01*
X46260974Y-117489266D01*
X45510734Y-116739026D01*
X44530499Y-116333000D01*
X43469501Y-116333000D01*
X42489266Y-116739026D01*
X41739026Y-117489266D01*
X41333000Y-118469501D01*
X40771458Y-118469501D01*
X40735000Y-117973051D01*
X40735000Y-115206646D01*
X51913840Y-115206646D01*
X51913840Y-115618394D01*
X52071409Y-115998800D01*
X52362560Y-116289951D01*
X52742966Y-116447520D01*
X53154714Y-116447520D01*
X53535120Y-116289951D01*
X53826271Y-115998800D01*
X53983840Y-115618394D01*
X53983840Y-115452321D01*
X67005042Y-102431120D01*
X147286849Y-102431120D01*
X147404280Y-102548551D01*
X147784686Y-102706120D01*
X148196434Y-102706120D01*
X148576840Y-102548551D01*
X148867991Y-102257400D01*
X149025560Y-101876994D01*
X149025560Y-101465246D01*
X148867991Y-101084840D01*
X148576840Y-100793689D01*
X148196434Y-100636120D01*
X147784686Y-100636120D01*
X147404280Y-100793689D01*
X147286849Y-100911120D01*
X66765086Y-100911120D01*
X66690239Y-100896232D01*
X66615392Y-100911120D01*
X66615388Y-100911120D01*
X66393703Y-100955216D01*
X66142311Y-101123191D01*
X66099911Y-101186647D01*
X52909039Y-114377520D01*
X52742966Y-114377520D01*
X52362560Y-114535089D01*
X52071409Y-114826240D01*
X51913840Y-115206646D01*
X40735000Y-115206646D01*
X40735000Y-106245526D01*
X51995120Y-106245526D01*
X51995120Y-106657274D01*
X52152689Y-107037680D01*
X52443840Y-107328831D01*
X52824246Y-107486400D01*
X53235994Y-107486400D01*
X53616400Y-107328831D01*
X53907551Y-107037680D01*
X54065120Y-106657274D01*
X54065120Y-106491201D01*
X67264123Y-93292200D01*
X147403689Y-93292200D01*
X147521120Y-93409631D01*
X147901526Y-93567200D01*
X148313274Y-93567200D01*
X148693680Y-93409631D01*
X148984831Y-93118480D01*
X149142400Y-92738074D01*
X149142400Y-92326326D01*
X148984831Y-91945920D01*
X148693680Y-91654769D01*
X148313274Y-91497200D01*
X147901526Y-91497200D01*
X147521120Y-91654769D01*
X147403689Y-91772200D01*
X67024166Y-91772200D01*
X66949319Y-91757312D01*
X66874472Y-91772200D01*
X66874468Y-91772200D01*
X66652783Y-91816296D01*
X66638139Y-91826081D01*
X66464846Y-91941871D01*
X66464844Y-91941873D01*
X66401391Y-91984271D01*
X66358993Y-92047724D01*
X52990319Y-105416400D01*
X52824246Y-105416400D01*
X52443840Y-105573969D01*
X52152689Y-105865120D01*
X51995120Y-106245526D01*
X40735000Y-106245526D01*
X40735000Y-82124570D01*
X40915564Y-82124570D01*
X41085395Y-82534604D01*
X41475682Y-82962863D01*
X42000148Y-83209166D01*
X42230040Y-83088499D01*
X42230040Y-81894680D01*
X41036885Y-81894680D01*
X40915564Y-82124570D01*
X40735000Y-82124570D01*
X40735000Y-79227680D01*
X40842948Y-79227680D01*
X40958201Y-79807098D01*
X41286415Y-80298305D01*
X41605518Y-80511523D01*
X41475682Y-80572497D01*
X41085395Y-81000756D01*
X40915564Y-81410790D01*
X41036885Y-81640680D01*
X42230040Y-81640680D01*
X42230040Y-81620680D01*
X42484040Y-81620680D01*
X42484040Y-81640680D01*
X42504040Y-81640680D01*
X42504040Y-81894680D01*
X42484040Y-81894680D01*
X42484040Y-83088499D01*
X42713932Y-83209166D01*
X43238398Y-82962863D01*
X43628685Y-82534604D01*
X43798516Y-82124570D01*
X43677196Y-81894682D01*
X43842040Y-81894682D01*
X43842040Y-81787483D01*
X43938921Y-81884364D01*
X43938920Y-85573953D01*
X43924032Y-85648800D01*
X43938920Y-85723647D01*
X43938920Y-85723651D01*
X43983016Y-85945336D01*
X44150991Y-86196729D01*
X44214450Y-86239131D01*
X50727831Y-92752513D01*
X50770231Y-92815969D01*
X51021623Y-92983944D01*
X51243308Y-93028040D01*
X51243313Y-93028040D01*
X51318160Y-93042928D01*
X51393007Y-93028040D01*
X52970513Y-93028040D01*
X53045360Y-93042928D01*
X53120207Y-93028040D01*
X53120212Y-93028040D01*
X53341897Y-92983944D01*
X53593289Y-92815969D01*
X53635691Y-92752510D01*
X60081002Y-86307200D01*
X121581110Y-86307200D01*
X121414679Y-86556281D01*
X121334320Y-86960274D01*
X121334320Y-88733087D01*
X121414680Y-89137080D01*
X121720792Y-89595209D01*
X122082239Y-89836720D01*
X59835968Y-89836720D01*
X59761120Y-89821832D01*
X59686272Y-89836720D01*
X59686268Y-89836720D01*
X59464583Y-89880816D01*
X59213191Y-90048791D01*
X59170791Y-90112247D01*
X58047290Y-91235749D01*
X58047287Y-91235751D01*
X52934439Y-96348600D01*
X52768366Y-96348600D01*
X52387960Y-96506169D01*
X52096809Y-96797320D01*
X51939240Y-97177726D01*
X51939240Y-97589474D01*
X52096809Y-97969880D01*
X52387960Y-98261031D01*
X52768366Y-98418600D01*
X53180114Y-98418600D01*
X53560520Y-98261031D01*
X53851671Y-97969880D01*
X54009240Y-97589474D01*
X54009240Y-97423401D01*
X59122089Y-92310553D01*
X59122091Y-92310550D01*
X60075922Y-91356720D01*
X144679753Y-91356720D01*
X144754600Y-91371608D01*
X144829447Y-91356720D01*
X144829452Y-91356720D01*
X145051137Y-91312624D01*
X145302529Y-91144649D01*
X145344931Y-91081190D01*
X148916996Y-87509127D01*
X148980449Y-87466729D01*
X149022847Y-87403276D01*
X149022849Y-87403274D01*
X149148423Y-87215338D01*
X149148424Y-87215337D01*
X149192520Y-86993652D01*
X149192520Y-86993648D01*
X149207408Y-86918801D01*
X149192520Y-86843954D01*
X149192520Y-84518631D01*
X149309951Y-84401200D01*
X149467520Y-84020794D01*
X149467520Y-83609046D01*
X149309951Y-83228640D01*
X149018800Y-82937489D01*
X148638394Y-82779920D01*
X148226646Y-82779920D01*
X147846240Y-82937489D01*
X147555089Y-83228640D01*
X147397520Y-83609046D01*
X147397520Y-84020794D01*
X147555089Y-84401200D01*
X147672520Y-84518631D01*
X147672521Y-86603996D01*
X144439799Y-89836720D01*
X141356402Y-89836720D01*
X141717849Y-89595209D01*
X142023961Y-89137080D01*
X142104320Y-88733087D01*
X142104320Y-86960273D01*
X142023961Y-86556280D01*
X141717848Y-86098151D01*
X141259719Y-85792039D01*
X140719320Y-85684547D01*
X140178920Y-85792039D01*
X139720791Y-86098152D01*
X139719320Y-86100354D01*
X139717848Y-86098151D01*
X139259719Y-85792039D01*
X138719320Y-85684547D01*
X138178920Y-85792039D01*
X137720791Y-86098152D01*
X137719320Y-86100354D01*
X137717848Y-86098151D01*
X137259719Y-85792039D01*
X136719320Y-85684547D01*
X136178920Y-85792039D01*
X135720791Y-86098152D01*
X135719320Y-86100354D01*
X135717848Y-86098151D01*
X135460267Y-85926041D01*
X135435224Y-85800143D01*
X135334100Y-85648800D01*
X135309649Y-85612206D01*
X135309647Y-85612204D01*
X135267249Y-85548751D01*
X135203795Y-85506353D01*
X134206451Y-84509009D01*
X134164049Y-84445551D01*
X133912657Y-84277576D01*
X133690972Y-84233480D01*
X133690967Y-84233480D01*
X133616120Y-84218592D01*
X133541273Y-84233480D01*
X123026086Y-84233480D01*
X122951239Y-84218592D01*
X122876392Y-84233480D01*
X122876388Y-84233480D01*
X122801553Y-84248366D01*
X122881453Y-83846680D01*
X122773961Y-83306280D01*
X122694839Y-83187865D01*
X140627002Y-83187865D01*
X140641147Y-83259364D01*
X140900175Y-83736220D01*
X141321971Y-84077652D01*
X141842320Y-84231680D01*
X142592320Y-84231680D01*
X142592320Y-82973680D01*
X142846320Y-82973680D01*
X142846320Y-84231680D01*
X143596320Y-84231680D01*
X144116669Y-84077652D01*
X144538465Y-83736220D01*
X144797493Y-83259364D01*
X144811638Y-83187865D01*
X144688976Y-82973680D01*
X142846320Y-82973680D01*
X142592320Y-82973680D01*
X140749664Y-82973680D01*
X140627002Y-83187865D01*
X122694839Y-83187865D01*
X122467849Y-82848151D01*
X122465647Y-82846680D01*
X122467849Y-82845209D01*
X122773961Y-82387080D01*
X122881453Y-81846680D01*
X122773961Y-81306280D01*
X122467849Y-80848151D01*
X122465647Y-80846680D01*
X122467849Y-80845209D01*
X122773961Y-80387080D01*
X122881453Y-79846680D01*
X122773961Y-79306280D01*
X122467849Y-78848151D01*
X122465647Y-78846680D01*
X122467849Y-78845209D01*
X122773961Y-78387080D01*
X122881453Y-77846680D01*
X122773961Y-77306280D01*
X122467849Y-76848151D01*
X122465647Y-76846680D01*
X122467849Y-76845209D01*
X122773961Y-76387080D01*
X122881453Y-75846680D01*
X122773961Y-75306280D01*
X122467849Y-74848151D01*
X122465647Y-74846680D01*
X122467849Y-74845209D01*
X122773961Y-74387080D01*
X122881453Y-73846680D01*
X122773961Y-73306280D01*
X122467849Y-72848151D01*
X122009720Y-72542039D01*
X121605727Y-72461680D01*
X119832913Y-72461680D01*
X119428920Y-72542039D01*
X118970791Y-72848151D01*
X118664679Y-73306280D01*
X118557187Y-73846680D01*
X118664679Y-74387080D01*
X118970791Y-74845209D01*
X118972993Y-74846680D01*
X118970791Y-74848151D01*
X118664679Y-75306280D01*
X118557187Y-75846680D01*
X118664679Y-76387080D01*
X118970791Y-76845209D01*
X118972993Y-76846680D01*
X118970791Y-76848151D01*
X118664679Y-77306280D01*
X118557187Y-77846680D01*
X118664679Y-78387080D01*
X118970791Y-78845209D01*
X118972993Y-78846680D01*
X118970791Y-78848151D01*
X118664679Y-79306280D01*
X118557187Y-79846680D01*
X118664679Y-80387080D01*
X118970791Y-80845209D01*
X118972993Y-80846680D01*
X118970791Y-80848151D01*
X118664679Y-81306280D01*
X118557187Y-81846680D01*
X118664679Y-82387080D01*
X118970791Y-82845209D01*
X118972993Y-82846680D01*
X118970791Y-82848151D01*
X118664679Y-83306280D01*
X118557187Y-83846680D01*
X118664679Y-84387080D01*
X118932031Y-84787200D01*
X59841046Y-84787200D01*
X59766199Y-84772312D01*
X59691352Y-84787200D01*
X59691348Y-84787200D01*
X59469663Y-84831296D01*
X59218271Y-84999271D01*
X59175871Y-85062727D01*
X52730559Y-91508040D01*
X51632962Y-91508040D01*
X48107848Y-87982926D01*
X52015440Y-87982926D01*
X52015440Y-88394674D01*
X52173009Y-88775080D01*
X52464160Y-89066231D01*
X52844566Y-89223800D01*
X53256314Y-89223800D01*
X53636720Y-89066231D01*
X53927871Y-88775080D01*
X54085440Y-88394674D01*
X54085440Y-88228601D01*
X66730722Y-75583320D01*
X105197993Y-75583320D01*
X105272840Y-75598208D01*
X105347687Y-75583320D01*
X105347692Y-75583320D01*
X105569377Y-75539224D01*
X105820769Y-75371249D01*
X105863171Y-75307790D01*
X113034923Y-68136040D01*
X121695475Y-68136040D01*
X121414679Y-68556281D01*
X121334320Y-68960274D01*
X121334320Y-70733087D01*
X121414680Y-71137080D01*
X121720792Y-71595209D01*
X122178921Y-71901321D01*
X122719320Y-72008813D01*
X123259720Y-71901321D01*
X123717849Y-71595209D01*
X123719321Y-71593007D01*
X123720792Y-71595209D01*
X124178921Y-71901321D01*
X124719320Y-72008813D01*
X125259720Y-71901321D01*
X125717849Y-71595209D01*
X125719321Y-71593007D01*
X125720792Y-71595209D01*
X126178921Y-71901321D01*
X126719320Y-72008813D01*
X127259720Y-71901321D01*
X127717849Y-71595209D01*
X127719321Y-71593007D01*
X127720792Y-71595209D01*
X128178921Y-71901321D01*
X128719320Y-72008813D01*
X129259720Y-71901321D01*
X129717849Y-71595209D01*
X129719321Y-71593007D01*
X129720792Y-71595209D01*
X130178921Y-71901321D01*
X130719320Y-72008813D01*
X131259720Y-71901321D01*
X131717849Y-71595209D01*
X131719321Y-71593007D01*
X131720792Y-71595209D01*
X132178921Y-71901321D01*
X132719320Y-72008813D01*
X133259720Y-71901321D01*
X133717849Y-71595209D01*
X133719321Y-71593007D01*
X133720792Y-71595209D01*
X134178921Y-71901321D01*
X134719320Y-72008813D01*
X135259720Y-71901321D01*
X135717849Y-71595209D01*
X135719321Y-71593007D01*
X135720792Y-71595209D01*
X136178921Y-71901321D01*
X136719320Y-72008813D01*
X137259720Y-71901321D01*
X137717849Y-71595209D01*
X137719321Y-71593007D01*
X137720792Y-71595209D01*
X138178921Y-71901321D01*
X138719320Y-72008813D01*
X139259720Y-71901321D01*
X139717849Y-71595209D01*
X139719321Y-71593007D01*
X139720792Y-71595209D01*
X140178921Y-71901321D01*
X140719320Y-72008813D01*
X141259720Y-71901321D01*
X141717849Y-71595209D01*
X142023961Y-71137080D01*
X142104320Y-70733087D01*
X142104320Y-69019476D01*
X147476008Y-74391165D01*
X147382280Y-74617446D01*
X147382280Y-75029194D01*
X147539849Y-75409600D01*
X147831000Y-75700751D01*
X148211406Y-75858320D01*
X148623154Y-75858320D01*
X149003560Y-75700751D01*
X149294711Y-75409600D01*
X149452280Y-75029194D01*
X149452280Y-74617446D01*
X149294711Y-74237040D01*
X149161594Y-74103923D01*
X149133184Y-73961098D01*
X148965209Y-73709706D01*
X148901753Y-73667306D01*
X142126016Y-66891570D01*
X142083614Y-66828111D01*
X141832222Y-66660136D01*
X141610537Y-66616040D01*
X141610532Y-66616040D01*
X141535685Y-66601152D01*
X141460838Y-66616040D01*
X112794966Y-66616040D01*
X112720119Y-66601152D01*
X112645272Y-66616040D01*
X112645268Y-66616040D01*
X112423583Y-66660136D01*
X112423581Y-66660137D01*
X112423582Y-66660137D01*
X112235646Y-66785711D01*
X112235644Y-66785713D01*
X112172191Y-66828111D01*
X112129793Y-66891564D01*
X104958039Y-74063320D01*
X66490766Y-74063320D01*
X66415919Y-74048432D01*
X66341072Y-74063320D01*
X66341068Y-74063320D01*
X66119383Y-74107416D01*
X65867991Y-74275391D01*
X65825591Y-74338847D01*
X53010639Y-87153800D01*
X52844566Y-87153800D01*
X52464160Y-87311369D01*
X52173009Y-87602520D01*
X52015440Y-87982926D01*
X48107848Y-87982926D01*
X45458920Y-85333999D01*
X45458920Y-83416888D01*
X45513129Y-83547760D01*
X45804280Y-83838911D01*
X46184686Y-83996480D01*
X46596434Y-83996480D01*
X46976840Y-83838911D01*
X47267991Y-83547760D01*
X47425560Y-83167354D01*
X47425560Y-82755606D01*
X47267991Y-82375200D01*
X47140400Y-82247609D01*
X47140400Y-79042126D01*
X51908760Y-79042126D01*
X51908760Y-79453874D01*
X52066329Y-79834280D01*
X52357480Y-80125431D01*
X52737886Y-80283000D01*
X53149634Y-80283000D01*
X53530040Y-80125431D01*
X53821191Y-79834280D01*
X53978760Y-79453874D01*
X53978760Y-79287801D01*
X66867882Y-66398680D01*
X147820249Y-66398680D01*
X147937680Y-66516111D01*
X148318086Y-66673680D01*
X148729834Y-66673680D01*
X149110240Y-66516111D01*
X149401391Y-66224960D01*
X149558960Y-65844554D01*
X149558960Y-65432806D01*
X149401391Y-65052400D01*
X149110240Y-64761249D01*
X148729834Y-64603680D01*
X148318086Y-64603680D01*
X147937680Y-64761249D01*
X147820249Y-64878680D01*
X66627927Y-64878680D01*
X66553080Y-64863792D01*
X66478233Y-64878680D01*
X66478228Y-64878680D01*
X66256543Y-64922776D01*
X66005151Y-65090751D01*
X65962751Y-65154207D01*
X52903959Y-78213000D01*
X52737886Y-78213000D01*
X52357480Y-78370569D01*
X52066329Y-78661720D01*
X51908760Y-79042126D01*
X47140400Y-79042126D01*
X47140400Y-70152126D01*
X51863040Y-70152126D01*
X51863040Y-70563874D01*
X52020609Y-70944280D01*
X52311760Y-71235431D01*
X52692166Y-71393000D01*
X53103914Y-71393000D01*
X53484320Y-71235431D01*
X53775471Y-70944280D01*
X53933040Y-70563874D01*
X53933040Y-70397801D01*
X66908523Y-57422320D01*
X147672929Y-57422320D01*
X147790360Y-57539751D01*
X148170766Y-57697320D01*
X148582514Y-57697320D01*
X148962920Y-57539751D01*
X149254071Y-57248600D01*
X149411640Y-56868194D01*
X149411640Y-56456446D01*
X149254071Y-56076040D01*
X148962920Y-55784889D01*
X148582514Y-55627320D01*
X148170766Y-55627320D01*
X147790360Y-55784889D01*
X147672929Y-55902320D01*
X66668566Y-55902320D01*
X66593719Y-55887432D01*
X66518872Y-55902320D01*
X66518868Y-55902320D01*
X66297183Y-55946416D01*
X66297181Y-55946417D01*
X66297182Y-55946417D01*
X66109246Y-56071991D01*
X66109244Y-56071993D01*
X66045791Y-56114391D01*
X66003393Y-56177844D01*
X52858239Y-69323000D01*
X52692166Y-69323000D01*
X52311760Y-69480569D01*
X52020609Y-69771720D01*
X51863040Y-70152126D01*
X47140400Y-70152126D01*
X47140400Y-61048766D01*
X51019760Y-61048766D01*
X51019760Y-61460514D01*
X51177329Y-61840920D01*
X51468480Y-62132071D01*
X51848886Y-62289640D01*
X52260634Y-62289640D01*
X52641040Y-62132071D01*
X52932191Y-61840920D01*
X53089760Y-61460514D01*
X53089760Y-61294441D01*
X66243042Y-48141160D01*
X147088729Y-48141160D01*
X147206160Y-48258591D01*
X147586566Y-48416160D01*
X147998314Y-48416160D01*
X148378720Y-48258591D01*
X148669871Y-47967440D01*
X148827440Y-47587034D01*
X148827440Y-47175286D01*
X148669871Y-46794880D01*
X148378720Y-46503729D01*
X147998314Y-46346160D01*
X147586566Y-46346160D01*
X147206160Y-46503729D01*
X147088729Y-46621160D01*
X66003088Y-46621160D01*
X65928240Y-46606272D01*
X65853392Y-46621160D01*
X65853388Y-46621160D01*
X65631703Y-46665256D01*
X65380311Y-46833231D01*
X65337911Y-46896687D01*
X52014959Y-60219640D01*
X51848886Y-60219640D01*
X51468480Y-60377209D01*
X51177329Y-60668360D01*
X51019760Y-61048766D01*
X47140400Y-61048766D01*
X47140400Y-55247671D01*
X47257831Y-55130240D01*
X47415400Y-54749834D01*
X47415400Y-54338086D01*
X47257831Y-53957680D01*
X46966680Y-53666529D01*
X46586274Y-53508960D01*
X46174526Y-53508960D01*
X45794120Y-53666529D01*
X45676689Y-53783960D01*
X44066591Y-53783960D01*
X43913600Y-53630969D01*
X43533194Y-53473400D01*
X43121446Y-53473400D01*
X42741040Y-53630969D01*
X42449889Y-53922120D01*
X42292320Y-54302526D01*
X42292320Y-54714274D01*
X42449889Y-55094680D01*
X42741040Y-55385831D01*
X43121446Y-55543400D01*
X43533194Y-55543400D01*
X43913600Y-55385831D01*
X43995471Y-55303960D01*
X45620400Y-55303960D01*
X45620401Y-82267928D01*
X45513129Y-82375200D01*
X45458920Y-82506072D01*
X45458920Y-81644406D01*
X45473808Y-81569559D01*
X45458920Y-81494712D01*
X45458920Y-81494708D01*
X45414824Y-81273023D01*
X45373022Y-81210462D01*
X45289249Y-81085086D01*
X45289247Y-81085084D01*
X45246849Y-81021631D01*
X45183396Y-80979233D01*
X43798249Y-79594087D01*
X43871132Y-79227680D01*
X43755879Y-78648262D01*
X43427665Y-78157055D01*
X43409421Y-78144864D01*
X43454805Y-78135837D01*
X43664849Y-77995489D01*
X43805197Y-77785445D01*
X43854480Y-77537680D01*
X43854480Y-75837680D01*
X43805197Y-75589915D01*
X43664849Y-75379871D01*
X43454805Y-75239523D01*
X43207040Y-75190240D01*
X41507040Y-75190240D01*
X41259275Y-75239523D01*
X41049231Y-75379871D01*
X40908883Y-75589915D01*
X40859600Y-75837680D01*
X40859600Y-77537680D01*
X40908883Y-77785445D01*
X41049231Y-77995489D01*
X41259275Y-78135837D01*
X41304659Y-78144864D01*
X41286415Y-78157055D01*
X40958201Y-78648262D01*
X40842948Y-79227680D01*
X40735000Y-79227680D01*
X40735000Y-45032731D01*
X40805281Y-44245253D01*
X41005231Y-43514357D01*
X41026626Y-43469501D01*
X41333000Y-43469501D01*
X41333000Y-44530499D01*
X41739026Y-45510734D01*
X42489266Y-46260974D01*
X43469501Y-46667000D01*
X44530499Y-46667000D01*
X45510734Y-46260974D01*
X46260974Y-45510734D01*
X46667000Y-44530499D01*
X46667000Y-43469501D01*
X154933000Y-43469501D01*
X154933000Y-44530499D01*
X155339026Y-45510734D01*
X156089266Y-46260974D01*
X157069501Y-46667000D01*
X158130499Y-46667000D01*
X159110734Y-46260974D01*
X159860974Y-45510734D01*
X160267000Y-44530499D01*
X160267000Y-43469501D01*
X159860974Y-42489266D01*
X159110734Y-41739026D01*
X158130499Y-41333000D01*
X157069501Y-41333000D01*
X156089266Y-41739026D01*
X155339026Y-42489266D01*
X154933000Y-43469501D01*
X46667000Y-43469501D01*
X46260974Y-42489266D01*
X45510734Y-41739026D01*
X44530499Y-41333000D01*
X43469501Y-41333000D01*
X42489266Y-41739026D01*
X41739026Y-42489266D01*
X41333000Y-43469501D01*
X41026626Y-43469501D01*
X41331450Y-42830425D01*
X41773626Y-42215072D01*
X42317789Y-41687741D01*
X42946726Y-41265114D01*
X43640570Y-40960537D01*
X44383039Y-40782285D01*
X45026949Y-40735000D01*
X157462770Y-40735000D01*
X158155756Y-40805391D01*
G04 #@! TD*
M02*
